<?xml version="1.0" encoding="UTF-8" standalone="no"?>
<!-- Created with Inkscape (http://www.inkscape.org/) -->

<svg
   xmlns:dc="http://purl.org/dc/elements/1.1/"
   xmlns:cc="http://creativecommons.org/ns#"
   xmlns:rdf="http://www.w3.org/1999/02/22-rdf-syntax-ns#"
   xmlns:svg="http://www.w3.org/2000/svg"
   xmlns="http://www.w3.org/2000/svg"
   xmlns:sodipodi="http://sodipodi.sourceforge.net/DTD/sodipodi-0.dtd"
   xmlns:inkscape="http://www.inkscape.org/namespaces/inkscape"
   version="1.1"
   id="svg815"
   width="65"
   height="92"
   viewBox="0 0 65 91.999996"
   sodipodi:docname="De_Novo_icon.svg"
   inkscape:version="0.92.4 (5da689c313, 2019-01-14)">
  <metadata
     id="metadata821">
    <rdf:RDF>
      <cc:Work
         rdf:about="">
        <dc:format>image/svg+xml</dc:format>
        <dc:type
           rdf:resource="http://purl.org/dc/dcmitype/StillImage" />
        <dc:title></dc:title>
      </cc:Work>
    </rdf:RDF>
  </metadata>
  <defs
     id="defs819" />
  <sodipodi:namedview
     pagecolor="#ffffff"
     bordercolor="#666666"
     borderopacity="1"
     objecttolerance="10"
     gridtolerance="10"
     guidetolerance="10"
     inkscape:pageopacity="0"
     inkscape:pageshadow="2"
     inkscape:window-width="1920"
     inkscape:window-height="1057"
     id="namedview817"
     showgrid="false"
     inkscape:zoom="8.0327329"
     inkscape:cx="26.966823"
     inkscape:cy="46.204604"
     inkscape:window-x="-8"
     inkscape:window-y="-8"
     inkscape:window-maximized="1"
     inkscape:current-layer="svg815"
     inkscape:snap-page="false" />
  <path
     style="fill:#000000;fill-opacity:1;stroke-width:0.21939269"
     d="M 29.929732,91.904871 C 25.613877,91.48906 22.173098,90.352688 18.128109,88.007299 11.048417,83.902271 5.6970347,77.295696 2.6469364,68.894993 -0.39958189,60.504199 -0.68513929,50.525658 1.8754468,41.936706 4.0027786,34.801107 8.053842,28.395301 13.346361,23.798133 c 3.453511,-2.999717 8.996204,-5.855126 12.926619,-6.6593 0.780182,-0.159659 1.496298,-0.36882 1.591366,-0.464828 0.359651,-0.363333 -0.139328,-1.183654 -1.656746,-2.723118 -1.897795,-1.925381 -2.277299,-2.546895 -2.279059,-3.731997 -0.0029,-2.7868662 2.104448,-4.2233432 4.411722,-3.0055652 1.554802,0.820624 2.596093,3.1866502 3.174391,7.2125612 0.148284,1.032466 0.378881,1.919557 0.512405,1.97129 0.517843,0.200685 0.0668,-2.975967 -0.987472,-6.9588449 C 30.22049,6.3446998 30.225989,4.6925869 31.061457,2.824071 31.40423,2.057712 31.89313,1.130971 32.147968,0.76466706 L 32.611308,0.09864807 33.445756,1.59261 c 1.566251,2.8041089 1.669403,3.9942249 0.679464,7.8395939 -0.581443,2.2586371 -1.244169,5.8484461 -1.244963,6.7436141 -1.46e-4,0.173494 0.108905,0.273072 0.242464,0.221358 0.133516,-0.05183 0.364036,-0.938824 0.512379,-1.97129 0.567585,-3.951535 1.558976,-6.2305092 3.106151,-7.1405032 2.332048,-1.3716089 4.480831,0.09162 4.481547,3.0518022 1.73e-4,0.994018 -0.06928,1.106258 -2.050994,3.327257 -1.298591,1.45515 -2.026633,2.444306 -1.984162,2.695805 0.05066,0.297713 0.551352,0.510481 2.000133,0.849275 15.907341,3.719846 27.170018,21.092493 25.846512,39.868214 -0.660588,9.371227 -3.787603,17.257217 -9.456014,23.847068 -5.625336,6.539738 -12.464439,10.220753 -20.412015,10.98638 -2.600726,0.250585 -2.570266,0.250629 -5.236668,-0.004 z m 4.95676,-2.127009 c 5.812985,-0.5982 10.983493,-2.774002 15.551824,-6.544411 2.136228,-1.763041 5.609431,-5.800872 7.126008,-8.284336 7.425081,-12.158917 7.62759,-28.174895 0.512649,-40.540886 -1.629985,-2.833029 -5.13118,-7.037488 -7.546469,-9.062442 -2.151475,-1.803708 -6.012711,-4.1019 -8.378993,-4.987104 -3.524608,-1.318572 -5.411512,-1.64074 -9.576559,-1.635111 -3.202199,0.0038 -4.222025,0.09428 -5.939165,0.524091 -6.119864,1.531792 -11.284038,4.78327 -15.640046,9.847373 -4.3559515,5.064047 -7.152828,11.067657 -8.470394,18.182364 -0.6467532,3.492023 -0.6514973,10.351073 -0.0067,13.779942 0.658884,3.519682 1.3441036,5.804047 2.6917836,8.973729 1.6053288,3.775646 3.439867,6.67142 6.1852964,9.763398 5.701191,6.420716 12.029838,9.524927 20.77519,10.190257 0.223819,0.01735 1.447172,-0.07587 2.718527,-0.206864 z M 27.488001,83.88757 C 17.211641,81.405519 9.3662393,72.362632 7.1214079,60.412233 6.627711,57.784103 6.5276332,52.551245 6.9147239,49.609264 8.5509411,37.173788 16.641676,27.285387 27.386282,24.588818 c 2.427209,-0.609149 7.950229,-0.609149 10.377306,0 10.688532,2.682479 18.80009,12.49303 20.471148,24.75901 0.480422,3.526336 0.304323,8.936721 -0.396126,12.167283 -2.338299,10.785625 -9.418589,19.098578 -18.752363,22.01729 -1.802125,0.563511 -2.476894,0.645526 -5.900845,0.716868 -3.182721,0.06618 -4.189761,0.002 -5.697401,-0.361699 z m 22.329687,-29.528198 0.0531,-11.531946 1.173861,-0.118509 c 0.64559,-0.0649 1.172307,-0.22477 1.17047,-0.354844 -0.0014,-0.143606 -1.163078,-0.262286 -2.954261,-0.302005 -2.534979,-0.0559 -2.950953,-0.0149 -2.950953,0.295649 0,0.278453 0.247085,0.3612 1.078437,0.3612 0.59316,0 1.188286,0.1279 1.322605,0.283827 0.180356,0.209679 0.24418,2.38907 0.24418,8.337967 v 8.054168 l -4.986173,-8.69275 -4.985998,-8.692804 h -2.84789 c -2.26561,0 -2.847858,0.06543 -2.847858,0.321728 0,0.216761 0.372149,0.366402 1.140136,0.458558 0.62706,0.07481 1.304352,0.309571 1.505042,0.520763 0.713604,0.750824 0.813909,2.189841 0.813909,11.678933 0,10.551145 0.102405,9.965643 -1.744067,9.965643 -0.854424,0 -1.104627,0.0821 -1.104627,0.360864 0,0.310881 0.443596,0.351823 3.204819,0.295686 2.005038,-0.04041 3.18673,-0.153701 3.156525,-0.301696 -0.02672,-0.129969 -0.527365,-0.269545 -1.112974,-0.309882 -0.585611,-0.03999 -1.182002,-0.186379 -1.32527,-0.324648 -0.203721,-0.196551 -0.260484,-2.312224 -0.260484,-9.71017 v -9.458876 l 3.529123,6.235251 c 5.352342,9.45639 8.143806,14.146894 8.42322,14.15361 0.196816,0.003 0.264012,-2.534123 0.305186,-11.525852 z m -24.027785,10.62787 c 3.716958,-1.428163 6.155498,-5.311304 6.414127,-10.213897 0.195914,-3.712616 -0.699679,-6.907585 -2.621525,-9.352224 -2.243541,-2.853853 -3.59569,-3.263708 -10.843974,-3.286614 -3.365404,-0.007 -5.311301,0.06971 -5.347902,0.219818 -0.03167,0.12998 0.334627,0.292544 0.81389,0.361032 0.479338,0.06803 0.985885,0.207729 1.125762,0.30958 0.19739,0.143769 0.254374,2.569134 0.254374,10.821996 v 10.636829 l -0.521917,0.230703 c -0.28714,0.126992 -0.836508,0.230667 -1.220896,0.230667 -0.501826,0 -0.698909,0.105674 -0.698909,0.374331 0,0.334643 0.598575,0.364443 5.646434,0.281221 5.144489,-0.08453 5.766876,-0.139428 7.000536,-0.613442 z m -5.525281,-0.256796 c -0.615514,-0.07997 -1.233589,-0.23008 -1.373508,-0.333999 -0.197087,-0.146365 -0.254293,-2.524524 -0.254293,-10.574882 0,-12.065384 -0.283842,-10.87584 2.594824,-10.87584 3.14249,0 5.017967,1.050353 6.29631,3.526198 0.899117,1.741474 1.283274,3.927917 1.279656,7.283687 -0.005,6.659016 -1.916475,10.185438 -5.924076,10.941455 -0.71301,0.134491 -1.342136,0.22965 -1.398098,0.211519 -0.05557,-0.0182 -0.60531,-0.09845 -1.220815,-0.178138 z M 30.971108,15.508032 c -0.24877,-1.808576 -0.978617,-3.643987 -1.858656,-4.674349 -0.818147,-0.9579298 -1.559669,-1.2732617 -1.824205,-0.775769 -0.189229,0.355959 0.385942,1.462415 1.216551,2.34031 0.941078,0.994629 1.398739,2.210329 1.228731,3.263874 -0.12578,0.778794 -0.117232,0.789708 0.619973,0.789708 h 0.747366 z m 4.448242,0.172522 c -0.177524,-1.099983 0.165223,-1.941238 1.445852,-3.549333 1.168382,-1.467145 1.323497,-2.130411 0.529098,-2.2619076 -1.095014,-0.1812826 -2.834503,2.8691646 -3.215466,5.6387186 l -0.129763,0.943774 h 0.747365 c 0.733503,0 0.74509,-0.01444 0.622943,-0.771252 z"
     id="path1412"
     inkscape:connector-curvature="0"
     sodipodi:nodetypes="cssscccssccccccccccccccccscsccccsssccccccccsccccscscssccccccccsscscccssccssscsscscscscscscscsccssccscsscccsscccccscccccccsccc" />
  <g
     id="g1368"
     transform="translate(444.73837,-456.40263)" />
</svg>
