<?xml version="1.0" encoding="UTF-8" standalone="no"?>
<!-- Created with Inkscape (http://www.inkscape.org/) -->

<svg
   xmlns:dc="http://purl.org/dc/elements/1.1/"
   xmlns:cc="http://creativecommons.org/ns#"
   xmlns:rdf="http://www.w3.org/1999/02/22-rdf-syntax-ns#"
   xmlns:svg="http://www.w3.org/2000/svg"
   xmlns="http://www.w3.org/2000/svg"
   xmlns:sodipodi="http://sodipodi.sourceforge.net/DTD/sodipodi-0.dtd"
   xmlns:inkscape="http://www.inkscape.org/namespaces/inkscape"
   version="1.1"
   id="svg815"
   width="1600"
   height="1066.6667"
   viewBox="0 0 1600 1066.6667"
   sodipodi:docname="De_Novo_logo_1200x700px.svg"
   inkscape:version="0.92.4 (5da689c313, 2019-01-14)">
  <metadata
     id="metadata821">
    <rdf:RDF>
      <cc:Work
         rdf:about="">
        <dc:format>image/svg+xml</dc:format>
        <dc:type
           rdf:resource="http://purl.org/dc/dcmitype/StillImage" />
        <dc:title></dc:title>
      </cc:Work>
    </rdf:RDF>
  </metadata>
  <defs
     id="defs819" />
  <sodipodi:namedview
     pagecolor="#ffffff"
     bordercolor="#666666"
     borderopacity="1"
     objecttolerance="10"
     gridtolerance="10"
     guidetolerance="10"
     inkscape:pageopacity="0"
     inkscape:pageshadow="2"
     inkscape:window-width="1920"
     inkscape:window-height="1057"
     id="namedview817"
     showgrid="false"
     inkscape:zoom="0.50204581"
     inkscape:cx="776.72013"
     inkscape:cy="446.73822"
     inkscape:window-x="1912"
     inkscape:window-y="-8"
     inkscape:window-maximized="1"
     inkscape:current-layer="svg815" />
  <path
     style="fill:#000000;fill-opacity:1;stroke-width:1.33333337"
     d="m 441.24191,1021.2432 c 0,-2.6602 0.8889,-2.6667 368.66667,-2.6667 367.77772,0 368.66662,0.01 368.66662,2.6667 0,2.6602 -0.8889,2.6667 -368.66662,2.6667 -367.77777,0 -368.66667,-0.01 -368.66667,-2.6667 z m -189,-33.41532 c 2.05554,-1.2191 2.33334,-3.7439 2.33334,-21.2065 0,-14.6106 -0.43823,-19.9995 -1.66667,-20.4952 -0.91667,-0.3698 1.33333,-0.6725 5,-0.6725 3.66667,0 5.91667,0.3027 5,0.6725 -1.23311,0.4976 -1.66667,6.0692 -1.66667,21.418 v 20.7455 l 8.19688,-0.8567 c 9.28252,-0.9702 11.80312,-2.4693 11.80312,-7.0197 0,-1.7436 0.6345,-3.1701 1.41,-3.1701 0.83424,0 1.24258,2.3139 1,5.6667 l -0.41,5.6666 -16.66666,0.3176 c -12.00227,0.2287 -16.01366,-0.07 -14.33334,-1.0662 z m 48.76064,0.01 c 3.07714,-1.2339 3.09166,-1.3532 2.66667,-21.9173 l -0.42731,-20.6764 10.66667,-0.016 c 5.86667,-0.01 11.94867,-0.3604 13.51556,-0.7808 2.53192,-0.6794 2.91604,-0.1211 3.4524,5.0182 0.67195,6.4384 0.22471,8.1291 -1.13924,4.3068 -2.03737,-5.7095 -4.65397,-7.1908 -12.70204,-7.1908 h -7.79335 v 8.588 c 0,4.7234 0.61464,8.9678 1.36587,9.4321 3.13113,1.9352 9.39112,-0.9262 11.23532,-5.1356 1.79412,-4.095 1.85112,-3.9285 1.95672,5.7155 0.0652,5.953 -0.37365,9.4258 -1.09516,8.6667 -0.66215,-0.6967 -1.41732,-2.4667 -1.67816,-3.9334 -0.37257,-2.0949 -1.69905,-2.7551 -6.18693,-3.0794 l -5.71268,-0.4128 0.39084,10.4128 0.39085,10.4128 8.28007,-0.1259 c 8.82446,-0.1341 11.88408,-1.6421 12.79164,-6.3043 0.31082,-1.5967 0.64685,-0.3532 0.74672,2.7635 l 0.18157,5.6667 -17,-0.084 c -11.88735,-0.059 -16.06951,-0.4577 -13.90603,-1.3252 z m 57.43654,-1.6169 c -13.01923,-8.6975 -12.1138,-31.8457 1.5459,-39.5229 4.37942,-2.4613 6.60098,-2.8812 11.66655,-2.205 3.44137,0.4595 7.9388,0.9016 9.99429,0.9827 2.67294,0.1053 3.5273,0.6945 3,2.0686 -0.40549,1.0567 -0.79136,4.1222 -0.8575,6.8122 l -0.12027,4.8909 -1.22947,-4.2494 c -0.6762,-2.3372 -2.80301,-5.4872 -4.72622,-7 -8.17615,-6.4314 -17.58548,-0.9553 -20.32748,11.8302 -3.17775,14.8177 3.03754,28.0862 13.1561,28.0862 5.81552,0 8.03426,-1.9265 8.03426,-6.9763 0,-2.6699 -0.8789,-4.1295 -3,-4.9821 -2.18983,-0.8802 -0.47948,-1.1797 6.33333,-1.1088 5.13333,0.053 7.98333,0.3571 6.33333,0.6749 -2.41056,0.4643 -3,1.4698 -3,5.1175 0,3.6786 -0.74618,4.9256 -3.93378,6.5739 -6.06422,3.1359 -17.4275,2.6429 -22.86904,-0.9923 z m 44.13616,1.3049 c 2.72598,-1.376 4.70368,-5.5631 10.85426,-22.9803 6.83087,-19.3436 7.65576,-20.9919 8.99032,-17.9644 0.80816,1.8333 4.4086,11.4333 8.00099,21.3333 4.99548,13.7668 7.27119,18.3874 9.67635,19.647 2.72229,1.4258 1.71184,1.6318 -7.52192,1.5338 -6.73451,-0.072 -9.43787,-0.4682 -7.33334,-1.0762 3.56659,-1.0303 3.90154,-3.3497 1.42458,-9.8646 -1.2166,-3.1999 -2.03663,-3.5733 -7.84719,-3.5733 -6.37737,0 -6.51509,0.088 -8.033,5.1547 -2.12265,7.0848 -1.98272,7.9087 1.45561,8.571 1.65,0.3178 -0.6,0.6507 -5,0.7397 -7.26149,0.147 -7.69229,0.01 -4.66666,-1.5207 z m 22.09684,-16.6114 c -0.41226,-1.2833 -1.87231,-5.2801 -3.24459,-8.8817 l -2.49505,-6.5485 -2.37282,7.2151 c -1.30504,3.9683 -2.6496,7.9651 -2.98792,8.8818 -0.43673,1.1834 1.19223,1.6667 5.6174,1.6667 5.33236,0 6.12426,-0.337 5.48298,-2.3334 z m 31.23649,17.3615 c 3.59056,-1.3668 3.95891,-3.4572 3.97959,-22.5837 0.0151,-13.8794 -0.4216,-19.0672 -1.64626,-19.5614 -0.91666,-0.3699 1.33334,-0.7107 5,-0.7574 4.68854,-0.06 6.07323,0.2897 4.66667,1.1774 -1.63072,1.0291 -2,4.9028 -2,20.9796 v 19.7174 l 4.19443,0.4074 c 7.66066,0.7442 12.93844,-1.4618 15.47017,-6.4661 l 2.33125,-4.608 0.003,6.3333 0.003,6.3334 -17,-0.1052 c -9.35,-0.058 -16.1,-0.4479 -15,-0.8666 z m 82.66599,-2.0281 c -6.20354,-4.2345 -9.33307,-10.8238 -9.33059,-19.6459 0.003,-9.0459 3.07799,-15.5649 9.33127,-19.7797 4.03125,-2.717 5.66516,-3.0289 12,-2.2903 4.03333,0.4703 8.68333,0.9737 10.33333,1.1188 2.65304,0.2332 3,0.9962 3,6.5971 0,3.4833 -0.6,6.3333 -1.33333,6.3333 -0.73334,0 -1.33334,-1.2462 -1.33334,-2.7692 0,-3.5507 -6.97176,-10.5641 -10.50136,-10.5641 -4.85126,0 -9.32682,2.9449 -11.52926,7.5862 -7.42271,15.6422 -1.11503,35.0804 11.38356,35.0804 4.03205,0 5.78697,-0.8441 8.52854,-4.1023 1.89852,-2.2562 3.45186,-4.9208 3.45186,-5.9213 0,-1.0004 0.51428,-2.1368 1.14285,-2.5253 0.62857,-0.3885 1.14287,2.5784 1.14287,6.5931 0,5.8186 -0.34984,7.0092 -1.7243,5.8685 -1.22522,-1.0169 -2.49542,-1.0184 -4.38854,-0.01 -4.7612,2.5481 -15.34419,1.7223 -20.17356,-1.5742 z m 54.60328,0 c -6.67379,-4.4975 -9.71371,-10.6508 -9.71371,-19.6622 0,-23.8134 26.80752,-31.4229 37.53957,-10.6559 5.50162,10.6459 1.54262,26.5111 -7.8243,31.3549 -5.74227,2.9695 -14.74948,2.5025 -20.00156,-1.0368 z m 19.20182,-2.6765 c 2.99178,-4.0227 4.52463,-17.2599 2.96276,-25.5855 -1.30894,-6.9778 -6.72757,-12.734 -11.98662,-12.734 -7.9194,0 -12.78056,8.1142 -12.78056,21.3333 0,8.9015 1.57764,13.9812 5.71322,18.3958 4.11367,4.3911 12.3109,3.6727 16.0912,-1.4102 z m 30.29578,-1.6523 0.0881,-6.6667 2.43479,5.4712 c 2.57089,5.7764 4.65124,7.1949 10.5526,7.1949 4.80269,0 6.82428,-2.2514 6.82428,-7.6 0,-5.0437 -2.85251,-8.4135 -10.36722,-12.2472 -7.08533,-3.6147 -8.93538,-6.2698 -8.76976,-12.5861 0.21064,-8.0333 5.05155,-11.8029 14.49456,-11.287 l 7.08404,0.387 0.48108,5 c 0.2646,2.75 0.0152,5 -0.55413,5 -0.56939,0 -1.03524,-0.7954 -1.03524,-1.7676 0,-2.7058 -5.81664,-7.5657 -9.0552,-7.5657 -1.61663,0 -3.85855,1.4884 -5.1032,3.3879 -3.14911,4.8062 -1.07225,8.4794 8.35387,14.7751 12.15822,8.1204 14.0961,14.9999 6.39474,22.7013 -2.98528,2.9853 -4.19221,3.2615 -12.60642,2.8852 l -9.3051,-0.4162 0.0881,-6.6667 z m 52.8998,5.9584 c 2.92458,-1.1755 3,-1.7097 3,-21.2488 v -20.0435 h -3.79335 c -4.04283,0 -7.51799,2.9699 -8.581,7.3333 -0.35731,1.4667 -0.71925,0.1167 -0.80432,-3 l -0.15467,-5.6666 h 16.64127 c 16.45049,0 16.65047,0.037 17.44384,3.1977 0.44141,1.7587 0.56107,4.6087 0.26589,6.3333 -0.50204,2.9333 -0.60706,2.8775 -1.62768,-0.8644 -1.60926,-5.9 -3.21585,-7.3333 -8.2199,-7.3333 h -4.50342 v 20.043 c 0,19.5391 0.0755,20.0732 3,21.2488 2.21367,0.8898 0.55364,1.2058 -6.33333,1.2058 -6.88697,0 -8.547,-0.316 -6.33333,-1.2058 z m 41.76358,-5.9584 0.0915,-6.6667 2.49921,5.6229 c 5.30123,11.927 19.89691,8.1893 16.76404,-4.293 -0.55932,-2.2285 -3.2284,-4.6861 -8.03614,-7.3994 -9.20194,-5.1933 -10.6882,-7.0808 -10.6882,-13.5738 0,-4.1716 0.80689,-6.0004 3.77314,-8.5519 3.16154,-2.7194 4.93894,-3.1828 10.96504,-2.8585 l 7.19188,0.387 -0.0799,5.3334 c -0.0652,4.3542 -0.29152,4.8088 -1.23292,2.476 -1.38555,-3.4334 -6.3764,-7.1427 -9.6105,-7.1427 -1.2866,0 -3.32441,1.5035 -4.52849,3.3412 -3.22411,4.9206 -0.69827,9.8119 7.42483,14.3781 10.81809,6.0811 13.84444,11.52 10.49742,18.8659 -2.6147,5.7387 -6.97417,7.6272 -16.53744,7.164 l -8.58493,-0.4164 0.0915,-6.6667 z m 78.55619,4.3333 c -7.85669,-5.3477 -9.98644,-9.4917 -9.98644,-19.4316 0,-15.4279 8.47269,-24.1039 21.79608,-22.3191 3.41216,0.4571 7.70392,0.9058 9.53725,0.9971 3.16198,0.1574 3.30862,0.5124 2.85251,6.905 l -0.48083,6.7391 -2.8525,-5.9433 c -4.60876,-9.6026 -13.76314,-10.6267 -20.00847,-2.2384 -3.35709,4.509 -4.60828,19.5916 -2.22444,26.8147 2.80295,8.493 11.66884,12.5796 18.89793,8.7107 1.47155,-0.7875 3.78972,-3.9375 5.1515,-7 l 2.47594,-5.5681 0.0737,8 c 0.0491,5.3176 -0.33446,7.3548 -1.14367,6.0758 -0.9928,-1.5691 -1.86167,-1.6306 -4.70899,-0.3333 -5.69341,2.5941 -14.43118,1.9588 -19.37964,-1.4091 z m 53.76033,0.2307 c -13.19766,-8.4539 -12.64984,-32.8823 0.8991,-40.0919 14.34224,-7.6317 29.35413,2.6906 29.35413,20.1842 0,8.5456 -2.46545,14.482 -7.921,19.0726 -5.49691,4.6253 -15.81284,5.0111 -22.33223,0.8351 z m 18.1829,-1.1604 c 8.63533,-8.6353 5.68024,-35.8923 -4.263,-39.3208 -9.667,-3.3332 -16.3888,5.4582 -16.24776,21.2505 0.0875,9.7956 2.5689,16.6955 6.9144,19.2265 3.86264,2.2498 10.77849,1.6617 13.59636,-1.1562 z m 31.737,2.5548 c 2.90914,-1.1693 2.99938,-1.7624 2.97958,-19.5821 -0.0207,-18.6212 -0.39684,-20.7073 -3.97958,-22.0711 -1.1,-0.4188 0.52124,-0.8087 3.60274,-0.8666 l 5.60274,-0.1052 10.8097,15.6666 10.80971,15.6667 -0.41244,-15.6693 c -0.38357,-14.5722 -0.23765,-15.6691 2.08413,-15.6666 1.91654,0 2.15726,0.4115 1.03603,1.7624 -0.87937,1.0596 -1.60755,9.9028 -1.82992,22.2234 l -0.36936,20.4635 -12,-18.1963 c -6.6,-10.008 -12.46792,-18.2085 -13.03984,-18.2234 -0.57191,-0.015 -0.87191,7.5968 -0.66667,16.9148 0.37007,16.8008 0.40094,16.9495 3.70651,17.8671 2.323,0.6448 1.1106,0.9399 -4,0.9736 -5.66271,0.037 -6.64989,-0.2263 -4.33333,-1.1574 z m 53.98304,-5.6256 c 0.0761,-3.4834 0.63616,-6.3334 1.2444,-6.3334 0.60824,0 1.10589,1.1191 1.10589,2.4869 0,1.3678 1.24355,4.0678 2.76344,6 3.82831,4.8669 10.92949,4.9054 14.09353,0.076 3.02032,-4.6096 1.22194,-9.5634 -4.87457,-13.4275 -10.77572,-6.8299 -13.31573,-9.7537 -13.31573,-15.3278 0,-3.8318 0.90377,-6.1664 3.32418,-8.5868 2.92023,-2.9203 4.29652,-3.2775 11.32523,-2.9394 l 8.00101,0.3848 -0.0453,6 -0.0453,6 -2.08952,-4 c -3.79883,-7.2722 -8.94206,-9.3379 -13.0418,-5.2381 -2.79178,2.7917 -2.66274,9.0096 0.23809,11.4725 1.28333,1.0896 5.17229,3.6014 8.64215,5.5818 7.10165,4.0533 9.02452,6.7945 9.02452,12.8653 0,2.874 -1.25104,5.4413 -3.98251,8.1728 -3.76659,3.7666 -4.48469,3.9598 -13.2444,3.5641 l -9.26176,-0.4184 z m 51.58111,3.1025 -3.8974,-3.8974 v -17.3248 c 0,-12.6123 -0.4534,-17.5077 -1.6667,-17.9973 -0.9167,-0.3699 1.6333,-0.6503 5.6667,-0.6231 4.0333,0.027 6.2833,0.3238 5,0.6592 -2.071,0.5412 -2.3334,2.5545 -2.3334,17.9059 0,16.5861 0.1344,17.4305 3.2728,20.5689 3.592,3.592 6.8491,4.0713 11.9315,1.7556 4.7873,-2.1813 6.1291,-7.5631 6.1291,-24.5841 0,-13.1994 -0.2851,-15.1111 -2.3334,-15.6463 -1.2833,-0.3354 -0.3622,-0.6794 2.0469,-0.7645 3.9348,-0.1389 4.2399,0.1076 3,2.4244 -0.7591,1.4184 -1.3802,9.8457 -1.3802,18.7272 0,15.3673 -0.1583,16.3066 -3.2727,19.421 -2.6987,2.6987 -4.5878,3.2728 -10.7693,3.2728 -6.5078,0 -8.0105,-0.514 -11.3939,-3.8975 z m 48.1026,2.9256 c 1.1,-0.4187 2.4408,-1.4213 2.9795,-2.2281 1.7155,-2.5686 1.2002,-37.4202 -0.5795,-39.2 -1.2445,-1.2445 -0.1508,-1.6 4.9215,-1.6 5.5653,0 6.1852,0.2458 4.2281,1.677 -2.0181,1.4756 -2.2488,3.9966 -1.9215,21 l 0.3719,19.323 4.1944,0.4074 c 7.6606,0.7442 12.9383,-1.4618 15.4701,-6.4661 l 2.3312,-4.608 v 6.3333 6.3334 l -16.9999,-0.1052 c -9.35,-0.058 -16.1,-0.4479 -15,-0.8666 z m 57.6665,-0.4683 c 2.0583,-1.1988 2.3334,-3.7189 2.3334,-21.3772 v -20.0183 l -4.3334,0.4179 c -3.4266,0.3303 -4.8211,1.3942 -6.6646,5.0844 l -2.3312,4.6667 v -5.6667 -5.6666 h 17.3334 17.3333 v 5.6666 5.6667 l -2.3313,-4.6667 c -1.9585,-3.9205 -3.1307,-4.7328 -7.3313,-5.0805 l -5,-0.4138 v 20.1235 c 0,19.6226 0.075,20.1534 3,21.3293 2.2572,0.9072 0.854,1.2167 -5.6666,1.2498 -6.5091,0.033 -8.0858,-0.2944 -6.3334,-1.3151 z m 39.0181,0.1819 c 1.9912,-0.8079 4.5352,-6.3834 9.8472,-21.5822 3.9394,-11.2711 7.5497,-20.9314 8.023,-21.4673 0.4733,-0.536 4.3926,8.6706 8.7096,20.4589 5.8987,16.1078 8.5388,21.7125 10.6255,22.5566 1.8294,0.7401 -0.8622,1.0993 -7.89,1.0531 -5.8667,-0.039 -9.4667,-0.3588 -8,-0.7116 4.4015,-1.0587 4.9507,-2.4583 3.2249,-8.2186 -1.6381,-5.4674 -1.6825,-5.4973 -8.1707,-5.4973 -6.1838,0 -6.6243,0.2409 -8.4556,4.6238 -2.5852,6.1873 -2.454,7.2523 1.068,8.668 2.3296,0.9364 1.3613,1.2058 -4.3333,1.2058 -5.0954,0 -6.514,-0.3324 -4.6486,-1.0892 z m 21.9819,-15.6048 c 0,-0.4747 -1.3007,-4.4305 -2.8905,-8.7907 l -2.8905,-7.9275 -3.0874,8.4573 c -1.698,4.6515 -3.0973,8.6073 -3.1094,8.7906 -0.012,0.1834 2.6778,0.3334 5.9778,0.3334 3.3,0 6,-0.3884 6,-0.8631 z m 31.6667,15.4882 c 2.9186,-1.1731 3,-1.7328 3,-20.6251 0,-18.8924 -0.082,-19.452 -3,-20.6252 -2.4647,-0.9906 -1.9294,-1.2157 3,-1.2613 l 6,-0.055 10.3772,15.6376 10.3773,15.6377 -0.3773,-15.6693 c -0.3459,-14.3688 -0.177,-15.6691 2.0348,-15.6667 1.6158,0 2.0559,0.5528 1.3334,1.6693 -0.5933,0.9167 -1.3787,10.8104 -1.7454,21.986 l -0.6667,20.3194 -12.6666,-18.7772 -12.6667,-18.7773 -0.387,15.1246 c -0.4587,17.9313 0.073,20.7497 4.0559,21.5171 1.6487,0.3177 -0.3022,0.6212 -4.3356,0.6746 -5.6295,0.075 -6.6363,-0.1831 -4.3333,-1.1088 z m 62.6667,0 c 2.9253,-1.1759 3,-1.7066 3,-21.3333 v -20.1275 l -4.3334,0.4179 c -3.4266,0.3303 -4.8211,1.3942 -6.6646,5.0844 l -2.3312,4.6667 v -5.7065 -5.7065 l 17,0.3732 17,0.3731 0.2768,6 c 0.2666,5.7773 0.2228,5.8515 -1.179,2 -2.2115,-6.0761 -3.6848,-7.3333 -8.5943,-7.3333 h -4.5023 v 20.043 c 0,19.5391 0.075,20.0732 3,21.2488 2.2137,0.8898 0.5537,1.2058 -6.3333,1.2058 -6.887,0 -8.547,-0.316 -6.3333,-1.2058 z m 41.7258,-5.9585 0.047,-6.6666 2.6251,5.2617 c 3.1205,6.2548 4.614,7.3575 10.002,7.3845 5.2308,0.026 7.2667,-2.0972 7.2667,-7.5796 0,-4.9025 -2.8375,-8.3986 -9.5957,-11.8232 -7.7227,-3.9131 -9.071,-5.7989 -9.071,-12.6866 0,-8.8436 4.0013,-12.0299 14.5156,-11.5588 l 7.4844,0.3353 0.065,5 c 0.036,2.75 -0.4143,5 -1,5 -0.5858,0 -1.065,-0.7954 -1.065,-1.7676 0,-0.9721 -1.4668,-3.1455 -3.2594,-4.8297 -4.1456,-3.8946 -9.5787,-2.8789 -11.4898,2.1478 -1.8071,4.753 0.6609,8.1917 9.8964,13.789 11.0792,6.7147 13.0175,14.617 5.4431,22.1915 -2.9853,2.9853 -4.1923,3.2615 -12.6065,2.8852 l -9.3051,-0.4162 0.047,-6.6667 z M 43.241913,978.63298 c 11.151416,-1.0692 16.178779,-3.5074 25.595843,-12.4137 7.632413,-7.2184 14.047789,-16.6807 22.914675,-33.7978 3.085736,-5.9568 7.807864,-13.3978 10.493619,-16.5355 l 4.88318,-5.7049 -5.47194,3.6211 c -3.009573,1.9917 -10.079369,8.6826 -15.710659,14.8687 -10.683846,11.7365 -15.414108,14.4433 -18.990432,10.867 -6.438252,-6.4382 9.960262,-24.6481 28.413993,-31.5525 l 7.432838,-2.781 H 805.7871 c 603.7876,0 703.741,0.2671 708.349,1.8929 14.0932,4.9724 26.231,14.1419 30.4284,22.9875 3.0352,6.3961 1.7903,11.1674 -2.9137,11.1674 -2.7389,0 -6.5816,-3.1261 -16.9747,-13.8091 -7.3888,-7.595 -14.9342,-14.5917 -16.7676,-15.5483 -2.8952,-1.5107 -2.7174,-1.0538 1.3524,3.4757 2.5771,2.8683 8.7778,12.8188 13.7792,22.1123 15.1466,28.1445 27.5723,39.4306 45.4374,41.27 l 9.431,0.971 -10.0896,-0.3532 c -8.1762,-0.2863 -11.4286,-1.0822 -17.1517,-4.197 -10.0692,-5.4804 -20.5543,-17.6437 -32.4241,-37.6141 -10.0544,-16.9158 -16.6008,-24.5406 -23.2362,-27.0633 -2.0093,-0.7639 -268.0178,-1.244 -689.31695,-1.244 -628.07376,0 -686.42754,0.1815 -690.57175,2.1481 -6.39457,3.0344 -11.03299,8.7973 -21.864475,27.1652 -17.15771,29.0958 -32.469144,41.5603 -50.558108,41.1578 l -8.787037,-0.1955 z m -15.333333,-1.3808 c -2.437288,-1.5751 -0.332113,-1.5751 3.333333,0 1.75832,0.7556 1.985407,1.1709 0.666667,1.2192 -1.1,0.04 -2.9,-0.5083 -4,-1.2192 z m 1552.66662,0 c 3.6655,-1.5751 5.7707,-1.5751 3.3333,0 -1.1,0.7109 -2.9,1.2595 -4,1.2192 -1.3188,-0.048 -1.0916,-0.4636 0.6667,-1.2192 z m -412.4106,-107.5794 c -1.4046,-2.798 -4.5158,-11.0873 -6.9138,-18.4206 -12.973,-39.673 -61.4896,-177.1723 -64.7184,-183.416 -3.1231,-6.03959 -7.3496,-7.98849 -19.5102,-8.99629 -8.5805,-0.7111 -11.1136,-1.3769 -11.1136,-2.921 0,-1.7372 6.539,-2.0361 49.753,-2.2744 45.7496,-0.2522 49.7187,-0.096 49.3263,1.9416 -0.5896,3.0614 -5.0757,4.0449 -19.1579,4.1998 -19.692,0.2167 -19.3372,-2.1306 -5.7006,37.70979 32.5965,95.2332 40.6105,118.3656 41.2165,118.9716 0.3645,0.3645 3.8555,-8.4598 7.7578,-19.6096 15.4759,-44.2178 39.1115,-114.101 41.4896,-122.672 2.4815,-8.94389 2.4804,-9.10169 -0.085,-11.66669 -2.1715,-2.1716 -4.4748,-2.6001 -13.9752,-2.6001 -9.2,0 -11.5319,-0.4082 -12.1943,-2.1346 -0.4505,-1.174 -0.047,-2.6121 0.8977,-3.1956 2.413,-1.4913 66.584,-1.2238 67.5143,0.2814 1.283,2.076 -0.5487,2.8234 -9.5865,3.9114 -11.5308,1.3882 -15.2656,3.3736 -18.9666,10.08289 -6.4685,11.7261 -49.7833,135.4309 -63.3693,180.9794 -3.9249,13.1587 -7.8054,24.1479 -8.6233,24.4205 -0.8178,0.2727 -2.6362,-1.7935 -4.0408,-4.5915 z m -414.65731,-33.3492 c -13.91834,-20.3893 -41.95311,-62.2714 -62.2995,-93.0714 -20.34638,-30.8 -37.51222,-56.57 -38.14632,-57.2667 -0.64946,-0.7135 -1.15289,36.6941 -1.15289,85.6667 0,83.6161 0.0967,87.03 2.53215,89.4655 1.96306,1.963 5.40913,2.7478 15.33333,3.4919 9.19603,0.6894 12.80119,1.453 12.80119,2.7113 0,2.7234 -2.53522,2.9136 -36.66667,2.7507 -27.38428,-0.1307 -32,-0.4392 -32,-2.1384 0,-1.5292 2.97369,-2.2965 12.93843,-3.3384 7.11613,-0.744 13.71613,-2.1303 14.66666,-3.0805 1.37244,-1.372 1.80274,-19.5952 2.09011,-88.5178 0.31291,-75.0482 0.0808,-87.8873 -1.71588,-94.9003 -3.37471,-13.17279 -8.03337,-16.78769 -23.22732,-18.02369 -8.91685,-0.7253 -10.08533,-1.1288 -10.08533,-3.4825 0,-2.58 0.90692,-2.6623 29.37845,-2.6667 h 29.37844 l 52.61905,78.45919 c 28.94048,43.1525 53.07019,78.7379 53.62156,79.0786 1.50104,0.9277 1.20242,-146.48989 -0.30157,-148.87109 -0.91937,-1.4556 -4.70633,-2.1933 -13.91209,-2.7103 -13.63526,-0.7657 -16.23707,-1.7754 -12.19358,-4.732 2.03694,-1.4895 8.49627,-1.891 30.4189,-1.891 28.65128,0 34.76569,0.9215 31.58033,4.7596 -1.14043,1.3742 -4.68201,1.907 -12.67407,1.907 -7.40892,0 -11.44952,0.5534 -12.17006,1.6667 -0.59328,0.9167 -1.3787,48.71679 -1.74536,106.22249 -0.49515,77.6562 -1.06483,104.6884 -2.2143,105.0714 -0.85118,0.2836 -12.93534,-16.1665 -26.85366,-36.5558 z m 166.40129,34.8758 c -35.73775,-9.8381 -64.44471,-40.6075 -73.34452,-78.6139 -7.57827,-32.3627 -2.84249,-68.8575 12.28447,-94.6666 7.91117,-13.4978 24.42404,-29.3639 37.72672,-36.24899 16.05573,-8.31 24.85781,-10.2859 46,-10.3259 20.41786,-0.039 27.86822,1.6239 43.33333,9.6698 12.68917,6.60169 30.23052,24.01299 38.46482,38.17969 6.3836,10.9827 11.5217,24.8868 14.3103,38.7254 2.372,11.771 1.9754,40.5716 -0.7344,53.3333 -7.5703,35.6515 -31.7221,65.4387 -62.89287,77.5678 -8.13536,3.1656 -11.28768,3.606 -28.48118,3.9789 -14.24074,0.3088 -21.26502,-0.1126 -26.66667,-1.5995 z m 46.25473,-7.2282 c 8.29015,-3.569 19.9728,-15.2763 24.73882,-24.7909 9.66887,-19.3026 13.02647,-35.5718 13.88097,-67.2614 0.8277,-30.6907 -1.0766,-46.5851 -8.00599,-66.8239 -5.53557,-16.1679 -11.47676,-26.4338 -20.47278,-35.3755 -9.81262,-9.75329 -18.6419,-13.04389 -35.06242,-13.06729 -16.44649,-0.023 -24.56164,2.8212 -34.59957,12.12819 -16.71225,15.4954 -25.31572,39.0568 -27.97943,76.6242 -4.1121,57.9947 11.38112,102.9063 40.43371,117.2089 13.97929,6.882 32.96291,7.4296 47.06669,1.3577 z m 404.69919,6.5895 c -27.9384,-7.3199 -54.2297,-31.5951 -66.7027,-61.588 -6.7665,-16.2706 -8.661,-28.9745 -7.8876,-52.8895 0.784,-24.239 2.6799,-32.8921 10.9911,-50.1643 12.6155,-26.2173 34.5852,-44.86689 61.3119,-52.04619 4.4,-1.1819 14.3,-2.464 22,-2.8491 17.6424,-0.8823 30.0892,1.571 44.6667,8.8038 38.1694,18.93819 60.7934,62.96909 57.5198,111.94509 -2.1906,32.7747 -13.2189,56.9247 -35.6173,77.9955 -11.6048,10.917 -23.992,17.9417 -37.8493,21.4642 -11.4426,2.9086 -36.0712,2.5671 -48.4326,-0.6715 z m 49.3604,-7.6978 c 5.327,-2.6252 10.8539,-6.6445 13.7508,-10 27.8266,-32.2317 32.5755,-114.6237 9.324,-161.7662 -7.7442,-15.7015 -15.6573,-24.4966 -27.1148,-30.13709 -8.3009,-4.0866 -9.7632,-4.369 -22.2464,-4.2974 -17.6704,0.1013 -26.3406,3.3552 -36.7896,13.80679 -17.7026,17.7073 -26.5824,48.7107 -26.5638,92.7482 0.023,55.0508 16.592,91.0103 47.0413,102.0944 5.3833,1.9596 9.9659,2.4637 20.3211,2.2354 12.1113,-0.267 14.209,-0.7081 22.2774,-4.6841 z m -1003.53689,7.741 c -51.51807,-0.5199 -68.01919,-1.0751 -68.42806,-2.3025 -0.6076,-1.824 2.44459,-2.6513 12.75019,-3.4559 12.60561,-0.9842 11.56711,8.2566 11.56711,-102.926 0,-85.4236 -0.256,-98.16079 -2.00808,-99.91319 -1.20091,-1.2011 -5.90738,-2.3708 -11.70872,-2.91 -9.1523,-0.8506 -12.38272,-2.1877 -10.30663,-4.2662 0.50065,-0.5012 35.63655,-1.2112 78.07976,-1.5779 l 77.16949,-0.6667 0.70907,6.6667 c 2.1056,19.79689 4.22808,48.21629 3.70931,49.66669 -0.69471,1.9421 -3.81018,2.2221 -4.91076,0.4413 -0.4165,-0.6739 -2.26186,-6.4173 -4.1008,-12.7631 -4.13792,-14.2791 -7.06904,-20.0677 -13.08915,-25.8494 -7.43156,-7.13719 -14.43224,-8.40439 -50.54349,-9.14869 l -31.66667,-0.6528 v 45.48629 45.4864 h 14.89079 c 20.29496,0 31.35568,-2.0414 35.94901,-6.6347 4.0392,-4.0392 7.50912,-14.2576 8.72455,-25.6925 0.78128,-7.3504 3.01936,-11.3722 5.48161,-9.8505 1.78841,1.1053 1.28521,93.1785 -0.51251,93.7777 -2.74325,0.9143 -4.31417,-2.9267 -5.83741,-14.2727 -1.77412,-13.2147 -5.32403,-21.5021 -10.91608,-25.484 -4.61059,-3.2831 -16.70356,-5.0291 -35.44663,-5.1181 l -12.33333,-0.059 v 52.5582 52.5583 l 31,-0.6232 c 39.32795,-0.7905 50.5752,-2.0833 57.39627,-6.5973 6.84956,-4.5328 12.38344,-16.3281 14.33888,-30.5627 1.59012,-11.5754 2.54116,-13.4855 6.04486,-12.141 2.06186,0.7912 2.20507,2.5074 1.42295,17.053 -0.47829,8.8954 -0.86963,21.7791 -0.86963,28.6307 v 12.4573 l -14.33333,-0.315 c -7.88333,-0.1732 -44.88349,-0.6232 -82.22257,-1 z m -307.11076,-0.8323 c -2.73166,-1.2155 -1.89199,-4.4218 1.33333,-5.0913 1.65,-0.3425 6.54968,-0.8615 10.88817,-1.1535 14.01003,-0.9427 12.90229,8.2064 12.47878,-103.0644 -0.27956,-73.4511 -0.75269,-96.79689 -1.9867,-98.03049 -0.89086,-0.8906 -5.09086,-1.8515 -9.33333,-2.1355 -4.24247,-0.284 -9.06359,-0.7965 -10.71359,-1.139 -3.45084,-0.7163 -4.00747,-3.9 -0.89095,-5.0959 3.36148,-1.2899 62.99731,-0.8996 88.53518,0.5795 29.59399,1.714 45.36035,4.8743 59.68956,11.96439 24.15979,11.9543 42.77595,38.203 49.04813,69.1576 2.8272,13.9528 2.1486,47.243 -1.21264,59.4892 -7.57221,27.5882 -26.95741,51.1059 -52.29121,63.4385 -20.48004,9.9698 -27.12235,10.8149 -89.2114,11.3508 -30.06667,0.2595 -55.41667,0.138 -56.33333,-0.2699 z m 114.4505,-9.8695 c 11.21115,-3.7469 19.19846,-8.9601 28.22115,-18.4195 9.12016,-9.5615 14.93263,-20.8629 19.26605,-37.4598 2.72288,-10.4285 3.46384,-17.0803 4.04022,-36.2697 1.27825,-42.5584 -5.87799,-68.9481 -23.46638,-86.5357 -13.81454,-13.8139 -31.8003,-19.90689 -58.84488,-19.93459 -16.78265,-0.017 -24.45836,1.4462 -26.20068,4.99539 -1.32654,2.7023 -2.36709,174.9839 -1.11922,185.3121 0.61194,5.0649 1.5801,7.3975 3.49606,8.4228 8.50739,4.5531 40.8493,4.4873 54.60768,-0.111 z m 30.5495,-256.63609 c -15.45483,-3.4748 -29.55807,-11.5609 -43.01198,-24.6611 -11.44637,-11.1454 -14.06297,-15.9182 -8.18304,-14.9262 1.39059,0.2347 9.42835,4.5403 17.86168,9.5681 21.56042,12.8539 32.80147,16.5125 50.66667,16.4903 15.86472,-0.02 29.36617,-3.0191 47.66972,-10.59 9.31047,-3.8511 28.43939,-13.5912 34.81967,-17.7296 1.43153,-0.9285 0.62558,-2.6967 -3.75519,-8.2388 -5.48127,-6.9344 -17.43423,-29.9749 -17.36615,-33.475 0.0191,-0.9817 3.37846,4.599 7.46524,12.4016 4.0868,7.8025 9.94968,17.0492 13.02863,20.5482 l 5.59809,6.3618 17.26999,-10.0569 c 36.95639,-21.521 68.58932,-35.3682 99.27,-43.4549 17.73528,-4.6747 18.40199,-4.7457 45.33333,-4.8312 32.5703,-0.1034 38.43743,1.0651 61.12264,12.1728 12.93067,6.3314 16.89847,9.1024 27.3741,19.1172 6.73829,6.4418 15.205,15.5174 18.8149,20.1678 5.68651,7.3257 4.15356,6.1395 -11.47333,-8.8779 -22.502,-21.6244 -33.91,-28.6179 -56.58697,-34.6897 -12.83424,-3.4364 -40.25279,-4.1031 -56.66679,-1.3779 -23.57897,3.9148 -53.16211,14.8236 -80.49223,29.6815 -17.65418,9.5976 -51.42565,30.1187 -51.42565,31.2485 0,1.1195 17.48077,8.4021 24.90283,10.3746 26.57681,7.063 57.02349,3.6138 111.77829,-12.6629 31.73353,-9.4333 40.83764,-11.2329 57.07272,-11.2813 15.28641,-0.046 15.04328,-1.1053 -1.08717,-4.738 -11.23007,-2.5291 -25.05955,-2.9487 -66,-2.0027 -23.18919,0.5358 -27.23991,-0.1442 -33,-5.54 -3.76848,-3.5302 -3.94056,-10.1234 -0.38228,-14.6471 6.04168,-7.6807 27.01993,-12.6461 47.07441,-11.1422 23.1174,1.7336 45.83944,9.5097 66.52133,22.7654 19.11284,12.25 51.37302,48.8182 50.2233,56.9302 -0.38767,2.7352 -1.9358,1.6543 -13.77387,-9.6167 -19.72768,-18.7827 -28.27023,-22.0748 -54.40439,-20.9664 -14.11094,0.5985 -20.09826,1.6831 -45.32816,8.2117 -40.88432,10.5793 -55.87998,13.0101 -80.93034,13.119 -24.74486,0.1074 -38.38232,-2.6431 -55.82763,-11.2602 -8.67329,-4.2841 -11.66077,-5.2008 -13.40335,-4.1125 -9.94196,6.2089 -32.3113,18.5122 -39.71013,21.841 -22.41885,10.0863 -51.90524,14.1859 -71.05889,9.8795 z m 1055.99995,-0.5748 c -19.1478,-4.2859 -35.3208,-11.2819 -58.5462,-25.3256 -6.167,-3.7291 -11.6475,-6.7801 -12.1789,-6.7801 -0.5314,0 -5.6856,2.3528 -11.4538,5.2283 -19.6841,9.8129 -42.3091,13.2817 -70.4878,10.807 -19.8374,-1.7422 -36.6115,-5.0659 -70.6665,-14.0024 -20.5579,-5.3946 -26.4183,-6.3991 -40.8614,-7.004 -27.1446,-1.1368 -37.8177,3.3392 -57.43889,24.0884 -6.57006,6.9477 -9.36244,9.0867 -10.4468,8.0024 -5.01105,-5.0111 28.57779,-44.2936 49.82499,-58.271 11.8035,-7.7648 28.9596,-15.3279 43.3143,-19.0946 15.3046,-4.016 41.4805,-4.9875 53.1918,-1.9742 26.2243,6.7475 27.5399,26.7193 1.9488,29.585 -4.8764,0.5461 -19.6663,0.3772 -32.8663,-0.3752 -26.5428,-1.5131 -45.3359,-0.1547 -59,4.2645 l -7.6665,2.4795 14.6666,0.1425 c 16.5168,0.1605 23.3463,1.567 62.1514,12.7999 32.9149,9.5279 45.0095,12.1582 63.8485,13.8855 17.6972,1.6225 31.8799,0.4051 46,-3.9486 11.0817,-3.4169 22.0026,-7.9407 21.9937,-9.1105 -0.01,-1.2984 -48.4866,-29.8425 -62.6512,-36.8903 -17.3832,-8.6493 -39.1855,-16.9043 -56.6758,-21.4592 -13.535,-3.5249 -16.467,-3.8131 -37.9999,-3.7345 -26.476,0.096 -33.4838,1.4433 -51.6382,9.9235 -13.8065,6.4493 -23.9927,14.233 -41.61555,31.8004 -9.97637,9.945 -12.32157,11.8434 -8.27741,6.7005 10.26201,-13.0503 28.67566,-30.618 38.53006,-36.7599 22.2783,-13.8855 41.7873,-18.373 75.6678,-17.4055 20.5134,0.5859 24.3764,1.0966 40.6665,5.3769 30.2711,7.9539 58.58,20.2507 96.4297,41.8872 19.2595,11.0095 19.8307,11.236 22.4212,8.8917 4.1312,-3.7386 13.8336,-18.9287 19.0712,-29.8578 2.6095,-5.4451 4.7446,-9.013 4.7446,-7.9285 0,3.5627 -13.0867,28.7349 -18.498,35.5807 l -5.2983,6.7029 20.2315,10.1004 c 22.7145,11.3401 37.2177,16.215 55.0476,18.503 20.838,2.6741 36.3047,-1.903 65.8505,-19.4872 11.0183,-6.5575 14.7291,-7.7214 15.7023,-4.9249 0.93,2.6724 -20.2541,22.4843 -30.4884,28.5134 -12.8373,7.5627 -23.4668,10.4675 -40.5472,11.0807 -11.0974,0.3984 -17.4247,-0.091 -26,-2.0103 z m -523.33329,-12.1469 c -28.2812,-2.3438 -50.82744,-8.7487 -77.33333,-21.9687 -46.39133,-23.138 -81.45781,-60.3762 -101.44436,-107.7268 -19.96291,-47.2947 -21.83409,-103.5388 -5.05525,-151.9506 13.9396,-40.2198 40.48541,-76.3264 75.16628,-102.2383 22.62981,-16.908 58.94958,-33.0025 84.70464,-37.5353 5.11244,-0.8998 9.80496,-2.0788 10.42781,-2.62 2.35693,-2.048 -0.91345,-6.6716 -10.85648,-15.3489 -12.43541,-10.8524 -14.92241,-14.3555 -14.93385,-21.0354 -0.0269,-15.7082 13.79001,-23.805 28.90894,-16.9409 10.18799,4.6255 17.01158,17.9616 20.80096,40.6537 0.97182,5.8195 2.48266,10.8195 3.35746,11.1111 3.39364,1.1312 0.43992,-16.774 -6.47051,-39.2236 -5.36749,-17.4372 -5.33136,-26.749295 0.14469,-37.281195 2.24602,-4.3196 5.44991,-9.5432 7.11978,-11.608 l 3.03612,-3.754 5.46793,8.4207 c 10.26308,15.8054 10.93899,22.513595 4.45229,44.187995 -3.81008,12.7309 -8.15278,32.9649 -8.15796,38.0105 -0.001,0.9778 0.71391,1.5392 1.5887,1.2476 0.8748,-0.2916 2.38564,-5.2916 3.35745,-11.1111 3.71937,-22.2729 10.2156,-35.1184 20.35392,-40.2476 15.28136,-7.7311 29.36165,0.5165 29.36644,17.2015 0.001,5.6029 -0.45176,6.2355 -13.43963,18.7542 -8.50934,8.202 -13.27997,13.7774 -13.00166,15.1949 0.32949,1.6781 3.61285,2.8773 13.10629,4.7869 104.23677,20.9671 178.03822,118.8882 169.36562,224.7176 -4.3287,52.8212 -24.81917,97.2706 -61.96289,134.4143 -36.86145,36.8615 -81.67645,57.6097 -133.75477,61.9251 -17.042,1.4122 -16.84233,1.4124 -34.31463,-0.036 z m 32.48044,-11.989 c 38.09086,-3.3715 71.972,-15.6355 101.90714,-36.8875 13.99792,-9.9376 36.75712,-32.6968 46.69472,-46.6947 48.65459,-68.5338 49.98179,-158.8082 3.3595,-228.5092 -10.68118,-15.9685 -33.62334,-39.667 -49.45041,-51.0807 -14.09788,-10.1666 -39.39965,-23.1204 -54.90519,-28.1099 -23.0961,-7.4321 -35.46032,-9.248 -62.75286,-9.2163 -20.98323,0.024 -27.666,0.5316 -38.91788,2.9541 -40.10214,8.634 -73.94155,26.961 -102.4852,55.5047 -28.54366,28.5436 -46.87064,62.383 -55.50466,102.4852 -4.23776,19.6829 -4.2691,58.3439 -0.0631,77.6707 4.31756,19.8389 8.80766,32.7148 17.6385,50.5805 10.51931,21.2815 22.54075,37.6039 40.53094,55.0317 37.35837,36.1905 78.82842,53.6875 136.13462,57.4376 1.46667,0.096 9.48287,-0.4288 17.81378,-1.1662 z m -48.48044,-33.2005 c -67.33877,-13.9901 -118.74781,-64.9607 -133.45734,-132.3191 -3.23494,-14.8136 -3.891,-44.3086 -1.35439,-60.8911 10.72189,-70.0925 63.73805,-125.8289 134.14507,-141.0281 15.90452,-3.4334 52.09548,-3.4334 68,0 70.039,15.1198 123.192,70.4173 134.14225,139.5545 3.14808,19.8762 1.99385,50.3718 -2.59572,68.5812 -15.32253,60.793 -61.71793,107.6492 -122.87987,124.1005 -11.80865,3.1763 -16.23021,3.6384 -38.66666,4.0408 -20.85558,0.3741 -27.45439,0.014 -37.33334,-2.0387 z m 146.32066,-166.436 0.34601,-65 7.69201,-0.6666 c 4.23062,-0.3667 7.68214,-1.2667 7.67006,-2 -0.0133,-0.8093 -7.62146,-1.4784 -19.35868,-1.7023 -16.61091,-0.317 -19.33672,-0.082 -19.33672,1.6666 0,1.5693 1.61908,2.0357 7.06666,2.0357 3.88667,0 7.78667,0.72 8.66667,1.6 1.18179,1.1818 1.6,13.466 1.6,46.9971 v 45.3971 l -32.67216,-48.9971 -32.67216,-48.9971 h -18.66117 c -14.8457,0 -18.66118,0.3708 -18.66118,1.8134 0,1.2216 2.43848,2.0652 7.47092,2.5846 4.109,0.4241 8.54708,1.7449 9.86239,2.9353 4.67621,4.2319 5.33336,12.343 5.33336,65.8285 0,59.4715 0.67141,56.1715 -11.42857,56.1715 -5.59852,0 -7.2381,0.4607 -7.2381,2.0339 0,1.7523 2.90638,1.983 21,1.6666 13.13843,-0.2297 20.88176,-0.8663 20.68416,-1.7005 -0.1737,-0.7333 -3.45552,-1.5193 -7.2929,-1.7465 -3.8374,-0.2272 -7.74527,-1.0507 -8.68418,-1.8299 -1.33513,-1.1081 -1.70708,-13.0331 -1.70708,-54.7317 v -53.315 l 23.12558,35.1449 c 35.07249,53.3011 53.36404,79.7391 55.19508,79.7772 1.28964,0.027 1.7302,-14.2839 2,-64.9657 z m -157.44798,59.9041 c 24.35614,-8.0501 40.33518,-29.9373 42.03022,-57.5707 1.28364,-20.9265 -4.58494,-38.935 -17.17828,-52.7142 -14.70154,-16.0858 -23.56172,-18.3957 -71.05795,-18.5249 -22.05255,-0.06 -34.80373,0.3909 -35.04335,1.2391 -0.20718,0.7333 2.19282,1.6489 5.33334,2.0346 3.1405,0.3857 6.46001,1.1711 7.37668,1.7453 1.29314,0.8101 1.66666,14.4807 1.66666,60.9984 v 59.9543 l -3.42013,1.3004 c -1.88107,0.7152 -5.48107,1.3003 -8,1.3003 -3.28811,0 -4.57987,0.5951 -4.57987,2.1099 0,1.8862 3.9225,2.0542 37,1.585 33.71031,-0.4783 37.78888,-0.7857 45.87268,-3.4575 z m -36.20601,-1.4474 c -4.03333,-0.4499 -8.08333,-1.2971 -9,-1.8827 -1.29187,-0.8252 -1.66667,-14.2296 -1.66667,-59.6057 0,-68.0065 -1.85978,-61.3016 17.00368,-61.3016 20.59184,0 32.88132,5.9203 41.25786,19.8754 5.89193,9.8159 8.4091,22.1398 8.38542,41.0545 -0.0471,37.5337 -12.55849,57.4105 -38.81926,61.6717 -4.67191,0.758 -8.79436,1.2946 -9.16103,1.1923 -0.36667,-0.1023 -3.96667,-0.554 -8,-1.0039 z m 70.15687,-277.4429 c -1.6301,-10.194 -6.41234,-20.5393 -12.17922,-26.3471 -5.36128,-5.3993 -10.22034,-7.1767 -11.95345,-4.3725 -1.24003,2.0064 2.52881,8.2428 7.97188,13.1912 6.16655,5.6062 9.16549,12.4585 8.05145,18.3968 -0.82349,4.3897 -0.76737,4.4512 4.06247,4.4512 h 4.89749 z m 29.14842,0.9724 c -1.1631,-6.2 1.08248,-10.9418 9.47427,-20.0059 7.65611,-8.2695 8.67275,-12.008 3.46703,-12.7492 -7.17539,-1.0218 -18.57386,16.172 -21.07012,31.7827 l -0.85063,5.3196 h 4.89749 c 4.80646,0 4.88235,-0.081 4.08196,-4.3472 z m -282.87305,315.8295 c -7.91255,-2.5712 -13.92849,-6.581 -20.38937,-13.5903 -16.7884,-18.2132 -17.029,-48.0789 -0.66511,-82.5587 5.93739,-12.5105 22.54513,-38.7841 37.92639,-60 34.13849,-47.0883 40.99776,-58.5638 44.83948,-75.0159 3.37298,-14.4448 0.0968,-30.8928 -9.62136,-48.3034 -1.84628,-3.3077 -2.3523,-4.814 -1.12448,-3.3474 1.22781,1.4667 4.61333,7.5603 7.52337,13.5413 10.33589,21.2436 9.90589,38.2307 -1.55696,61.5064 -6.25304,12.697 -10.25385,18.9724 -36.48329,57.225 -35.82948,52.2532 -47.2583,78.0742 -45.9114,103.7273 0.6688,12.7381 3.82044,20.6337 11.60894,29.0832 10.47158,11.3604 27.73306,15.4219 39.48148,9.2899 12.96787,-6.7685 21.48626,-21.7492 20.32559,-35.7452 -2.539,-30.617 -41.53244,-40.9807 -53.38399,-14.1883 -6.84961,15.4847 6.29516,32.4849 21.80619,28.2021 7.51325,-2.0745 11.19228,-6.9607 11.19228,-14.8645 0,-5.6602 -0.56863,-7.1638 -3.74101,-9.8926 -6.17884,-5.3148 -14.30934,-4.0618 -18.05268,2.7821 -0.8022,1.4667 -1.4768,1.8894 -1.4991,0.9394 -0.0223,-0.95 1.43219,-3.2 3.23219,-5 6.15048,-6.1505 17.01351,-3.7435 21.40155,4.742 2.68234,5.1871 2.50749,9.7485 -0.60778,15.8549 -3.46925,6.8003 -10.1213,9.9552 -19.37265,9.188 -12.73264,-1.0558 -20.72132,-10.3357 -20.66457,-24.0045 0.0879,-21.1582 21.14941,-34.6345 42.40721,-27.1343 l 5.43843,1.9188 -6.07986,-8.2522 c -10.60334,-14.3918 -13.06129,-20.2783 -13.03902,-31.2273 0.0219,-10.7393 1.93174,-14.6036 9.89706,-20.0248 6.59155,-4.4862 12.63832,-3.9752 18.1469,1.5333 3.78538,3.7854 4.53333,5.5038 4.53333,10.4153 0,7.4456 -3.59955,11.7544 -9.71861,11.6336 -3.812,-0.075 -3.96204,-0.2132 -1.36855,-1.2582 10.20325,-4.111 5.61193,-18.6573 -5.88889,-18.6573 -6.4756,0 -10.40743,2.7585 -12.35864,8.6708 -2.66654,8.0797 0.58489,14.7826 17.1373,35.3292 4.43083,5.5 9.51004,13 11.28715,16.6666 3.88567,8.0173 6.89227,26.3258 5.81579,35.415 -1.63286,13.7868 -10.88742,27.0823 -23.14987,33.2579 -7.69699,3.8763 -20.99763,4.8483 -29.32344,2.1428 z m 502.60058,-0.2738 c -7.9579,-2.9317 -18.2531,-12.6825 -22.4519,-21.2645 -4.6184,-9.4396 -5.5094,-20.6384 -2.788,-35.0402 2.3769,-12.5785 5.7819,-18.8876 19.0884,-35.3686 12.7726,-15.8197 15.8503,-22.7737 13.6332,-30.8037 -1.6131,-5.8421 -5.652,-8.7315 -12.2051,-8.7315 -12.2009,0 -16.108,14.9609 -4.976,19.0541 1.1,0.4044 0.05,0.7827 -2.3334,0.8406 -6.4149,0.1558 -9.6765,-3.7622 -9.6242,-11.5614 0.045,-6.7058 1.2619,-9.0573 6.5876,-12.7278 9.3271,-6.4285 22.6486,1.2856 25.4399,14.7316 2.43,11.7048 -0.9761,21.3871 -13.5336,38.4716 l -5.0046,6.8088 4.9008,-1.7502 c 13.6066,-4.8594 30.4809,0.075 38.1644,11.1601 5.498,7.9319 6.2547,19.6877 1.8218,28.3004 -10.2567,19.9275 -41.528,13.6002 -39.2974,-7.9512 1.2263,-11.8488 15.0886,-17.9546 22.9393,-10.1039 1.8,1.8 3.2545,4.05 3.2321,5 -0.022,0.95 -0.6968,0.5273 -1.499,-0.9394 -4.0233,-7.3557 -12.4397,-8.2258 -18.7292,-1.9363 -3.6308,3.6308 -3.9914,4.7048 -3.3852,10.083 2.1643,19.2016 28.912,19.1713 34.2904,-0.039 4.5381,-16.2083 -10.9802,-32.1586 -28.7018,-29.5011 -8.1508,1.2223 -17.0552,7.4211 -21.4844,14.9564 -3.3124,5.6353 -3.7807,7.765 -3.7605,17.1035 0.026,12.1962 2.6277,18.6188 10.7265,26.4843 10.7378,10.4284 23.3326,12.3834 36.9275,5.7321 16.3322,-7.9906 24.7,-24.2977 23.2839,-45.375 -1.7378,-25.8675 -12.348,-47.0138 -54.2768,-108.1748 -29.2395,-42.6511 -35.3252,-54.7151 -36.8745,-73.0975 -1.2016,-14.2583 5.004,-34.4419 14.2156,-46.2358 1.432,-1.8333 0.2077,1.4667 -2.7204,7.3333 -10.3312,20.6986 -11.5655,35.895 -4.3754,53.8674 5.688,14.2177 10.8862,22.2788 43.9357,68.1326 24.824,34.4416 38.0567,58.1407 43.9655,78.7403 3.0224,10.5366 3.387,13.9047 2.921,26.9829 -0.4702,13.1952 -0.9822,15.8448 -4.3765,22.6469 -4.5644,9.1475 -14.3573,18.7374 -23.0855,22.6072 -8.2043,3.6375 -22.9205,4.3902 -30.5902,1.5646 z"
     id="path1412"
     inkscape:connector-curvature="0" />
  <g
     id="g1368"
     transform="translate(444.73837,518.26412)" />
</svg>
