<?xml version="1.0" encoding="utf-8"?>
<!DOCTYPE svg PUBLIC "-//W3C//DTD SVG 1.1//EN" "http://www.w3.org/Graphics/SVG/1.1/DTD/svg11.dtd">
<svg xmlns="http://www.w3.org/2000/svg" xmlns:xlink="http://www.w3.org/1999/xlink" version="1.1" baseProfile="full" width="444.385" height="404.492" viewBox="0 0 444.39 404.49" enable-background="new 0 0 444.39 404.49" xml:space="preserve">
	<path fill="#FFFFFF" fill-opacity="1" stroke-linejoin="round" d="M 209.527,403.64C 188.366,401.812 171.496,396.817 151.668,386.505C 116.96,368.457 90.7257,339.411 75.7723,302.473C 60.835,265.583 59.4337,221.708 71.991,183.948C 82.4177,152.572 102.278,124.411 128.226,104.197C 145.158,91.0107 172.33,78.4534 191.6,74.916C 195.423,74.2187 198.934,73.296 199.398,72.8747C 201.163,71.276 198.715,67.6721 191.278,60.9C 181.975,52.4373 180.111,49.7027 180.106,44.4947C 180.084,32.2387 190.423,25.9213 201.731,31.2813C 209.356,34.8853 214.46,45.2907 217.294,62.9893C 218.023,67.5307 219.152,71.4321 219.808,71.656C 222.346,72.5414 220.138,58.5721 214.966,41.0627C 210.95,27.4574 210.975,20.1974 215.075,11.9787C 216.756,8.60931 219.152,4.53607 220.403,2.9267L 222.674,3.05176e-005L 226.762,6.56668C 234.444,18.896 234.95,24.1241 230.095,41.0361C 227.247,50.9627 223.996,66.7494 223.991,70.6813C 223.991,71.448 224.527,71.8853 225.179,71.656C 225.835,71.4321 226.966,67.5307 227.69,62.9893C 230.475,45.6147 235.335,35.5987 242.918,31.5934C 254.351,25.5627 264.887,32 264.892,45.0147C 264.892,49.3853 264.554,49.8747 254.835,59.6401C 248.471,66.0414 244.898,70.3907 245.106,71.4947C 245.356,72.8014 247.808,73.7387 254.914,75.2293C 332.898,91.5827 388.116,167.968 381.627,250.515C 378.387,291.719 363.059,326.391 335.267,355.364C 307.69,384.12 274.163,400.301 235.199,403.672C 222.45,404.771 222.595,404.771 209.527,403.64 Z M 233.824,394.291C 262.324,391.661 287.674,382.093 310.07,365.515C 320.543,357.765 337.57,340.011 345.002,329.093C 381.403,275.635 382.398,205.219 347.518,150.848C 339.527,138.391 322.36,119.905 310.523,111C 299.971,103.072 281.043,92.968 269.444,89.0721C 252.163,83.276 242.914,81.8587 222.491,81.8853C 206.794,81.9054 201.794,82.3014 193.376,84.192C 163.376,90.9267 138.059,105.219 116.699,127.484C 95.3457,149.749 81.6377,176.145 75.1737,207.427C 72.007,222.781 71.9803,252.937 75.127,268.015C 78.3604,283.489 81.7203,293.536 88.3243,307.468C 96.1936,324.072 105.19,336.801 118.647,350.396C 146.6,378.624 177.627,392.276 220.496,395.203C 221.595,395.276 227.595,394.864 233.824,394.291 Z M 197.554,368.391C 147.174,357.479 108.715,317.719 97.7097,265.177C 95.2884,253.624 94.799,230.615 96.6936,217.681C 104.715,163.005 144.382,119.531 197.054,107.672C 208.955,104.995 236.032,104.995 247.928,107.672C 300.33,119.468 340.1,162.604 348.288,216.531C 350.647,232.036 349.783,255.823 346.351,270.025C 334.887,317.448 300.174,354 254.414,366.833C 245.58,369.307 242.272,369.672 225.486,369.984C 209.882,370.276 204.944,369.995 197.554,368.391 Z M 307.027,238.567L 307.283,187.864L 313.038,187.344C 316.204,187.057 318.788,186.353 318.778,185.781C 318.767,185.151 313.075,184.629 304.294,184.453C 291.866,184.208 289.83,184.391 289.83,185.755C 289.83,186.979 291.038,187.344 295.116,187.344C 298.023,187.344 300.939,187.905 301.6,188.593C 302.48,189.515 302.794,199.093 302.794,225.249L 302.794,260.661L 253.908,184.224L 239.944,184.224C 228.84,184.224 225.986,184.511 225.986,185.635C 225.986,186.588 227.808,187.249 231.575,187.656C 234.647,187.984 237.971,189.015 238.955,189.943C 242.45,193.244 242.944,199.572 242.944,241.291C 242.944,287.681 243.444,285.109 234.392,285.109C 230.204,285.109 228.975,285.468 228.975,286.692C 228.975,288.063 231.152,288.239 244.69,287.995C 254.518,287.817 260.314,287.317 260.163,286.667C 260.032,286.099 257.58,285.484 254.71,285.307C 251.835,285.129 248.914,284.484 248.21,283.88C 247.21,283.015 246.934,273.713 246.934,241.187L 246.934,199.599L 264.236,227.011C 290.475,268.588 304.158,289.213 305.527,289.239C 306.496,289.265 306.824,278.099 307.027,238.567 Z M 189.231,285.291C 207.455,279.015 219.408,261.943 220.674,240.385C 221.638,224.063 217.247,210.015 207.824,199.265C 196.824,186.719 190.194,184.916 154.663,184.817C 138.163,184.771 128.622,185.12 128.444,185.781C 128.288,186.353 130.084,187.067 132.434,187.369C 134.783,187.672 137.267,188.287 137.95,188.733C 138.918,189.364 139.199,200.025 139.199,236.312L 139.199,283.077L 136.642,284.093C 135.231,284.651 132.538,285.109 130.652,285.109C 128.194,285.109 127.226,285.572 127.226,286.755C 127.226,288.224 130.163,288.359 154.908,287.989C 180.132,287.62 183.184,287.38 189.231,285.291 Z M 162.142,284.167C 159.127,283.812 156.095,283.151 155.408,282.697C 154.444,282.052 154.163,271.599 154.163,236.203C 154.163,183.151 152.772,188.385 166.882,188.385C 182.288,188.385 191.486,193 197.751,203.885C 202.158,211.541 204.043,221.156 204.023,235.911C 203.991,265.187 194.627,280.692 174.98,284.015C 171.486,284.609 168.403,285.025 168.127,284.948C 167.851,284.869 165.158,284.515 162.142,284.167 Z M 214.632,67.7494C 213.414,59.796 209.835,51.7293 205.518,47.1974C 201.507,42.984 197.871,41.5987 196.575,43.7867C 195.647,45.348 198.466,50.2133 202.538,54.0721C 207.152,58.448 209.398,63.7907 208.564,68.4267C 207.95,71.848 207.991,71.896 211.6,71.896L 215.267,71.896M 236.439,68.5054C 235.57,63.6721 237.247,59.9734 243.527,52.9C 249.256,46.4534 250.018,43.5361 246.122,42.9574C 240.751,42.1614 232.226,55.5721 230.356,67.7494L 229.72,71.896L 233.382,71.896C 236.98,71.896 237.038,71.8333 236.439,68.5054 Z M 24.8043,314.864C 18.887,312.859 14.3817,309.733 9.54834,304.265C -3.00899,290.057 -3.19165,266.76 9.05367,239.864C 13.4963,230.109 25.9177,209.615 37.4283,193.063C 62.971,156.333 68.1003,147.38 70.975,134.547C 73.4963,123.281 71.0483,110.453 63.7777,96.8694C 62.3923,94.2907 62.0177,93.1147 62.9337,94.26C 63.8563,95.4 66.387,100.156 68.5643,104.823C 76.299,121.391 75.975,134.64 67.3977,152.796C 62.7203,162.703 59.7257,167.599 40.1057,197.437C 13.299,238.197 4.74699,258.339 5.75635,278.348C 6.25635,288.287 8.611,294.443 14.439,301.036C 22.2723,309.896 35.1897,313.063 43.975,308.281C 53.679,303 60.0537,291.317 59.1843,280.396C 57.283,256.515 28.111,248.432 19.247,269.333C 14.1217,281.411 23.955,294.672 35.559,291.328C 41.179,289.713 43.9337,285.9 43.9337,279.733C 43.9337,275.317 43.507,274.145 41.1323,272.015C 36.5123,267.869 30.4283,268.848 27.627,274.187C 27.027,275.333 26.523,275.661 26.507,274.921C 26.491,274.181 27.5803,272.427 28.923,271.02C 33.527,266.224 41.6523,268.099 44.9337,274.719C 46.9443,278.765 46.8137,282.323 44.4803,287.088C 41.887,292.391 36.9083,294.853 29.9857,294.255C 20.4603,293.432 14.4857,286.192 14.527,275.531C 14.595,259.025 30.351,248.515 46.2563,254.364L 50.3243,255.859L 45.7723,249.421C 37.8403,238.197 36.0017,233.604 36.0177,225.063C 36.0377,216.687 37.4657,213.672 43.423,209.443C 48.3563,205.948 52.8817,206.344 57.0017,210.64C 59.835,213.593 60.3923,214.932 60.3923,218.765C 60.3923,224.572 57.699,227.932 53.1217,227.839C 50.267,227.781 50.1577,227.672 52.095,226.859C 59.731,223.651 56.299,212.307 47.6937,212.307C 42.8457,212.307 39.9083,214.457 38.4443,219.067C 36.4497,225.369 38.8817,230.599 51.267,246.624C 54.5803,250.916 58.3817,256.765 59.7097,259.624C 62.6163,265.88 64.8657,280.161 64.0643,287.249C 62.8403,298.005 55.9177,308.38 46.7417,313.192C 40.9857,316.219 31.0324,316.979 24.8043,314.864 Z M 400.83,314.651C 394.876,312.364 387.174,304.76 384.032,298.067C 380.575,290.703 379.908,281.968 381.944,270.733C 383.726,260.921 386.272,256 396.226,243.145C 405.783,230.801 408.084,225.38 406.428,219.115C 405.22,214.557 402.199,212.307 397.294,212.307C 388.168,212.307 385.247,223.973 393.575,227.167C 394.398,227.484 393.611,227.776 391.824,227.823C 387.027,227.943 384.584,224.891 384.627,218.807C 384.658,213.572 385.57,211.739 389.554,208.875C 396.532,203.864 406.502,209.88 408.59,220.369C 410.408,229.5 407.856,237.052 398.466,250.38L 394.72,255.687L 398.387,254.323C 408.564,250.531 421.19,254.38 426.939,263.031C 431.054,269.219 431.616,278.385 428.299,285.104C 420.627,300.651 397.231,295.713 398.903,278.9C 399.819,269.661 410.19,264.896 416.064,271.02C 417.408,272.427 418.496,274.181 418.48,274.921C 418.466,275.661 417.96,275.333 417.36,274.187C 414.351,268.448 408.054,267.771 403.346,272.677C 400.632,275.511 400.36,276.348 400.814,280.541C 402.434,295.52 422.444,295.495 426.471,280.511C 429.866,267.869 418.251,255.427 404.996,257.5C 398.898,258.453 392.236,263.291 388.923,269.167C 386.444,273.563 386.095,275.224 386.106,282.511C 386.127,292.02 388.075,297.031 394.132,303.167C 402.168,311.301 411.59,312.828 421.762,307.64C 433.98,301.405 440.242,288.687 439.179,272.244C 437.882,252.067 429.944,235.572 398.575,187.864C 376.699,154.593 372.142,145.181 370.986,130.844C 370.084,119.724 374.731,103.979 381.622,94.7813C 382.694,93.348 381.778,95.9213 379.584,100.5C 371.856,116.645 370.934,128.5 376.314,142.515C 380.57,153.609 384.455,159.896 409.184,195.661C 427.756,222.531 437.652,241.015 442.075,257.083C 444.335,265.301 444.611,267.932 444.262,278.129C 443.908,288.427 443.527,290.489 440.986,295.796C 437.57,302.932 430.247,310.411 423.715,313.432C 417.58,316.271 406.57,316.859 400.83,314.651 Z "/>
</svg>
