<svg xmlns="http://www.w3.org/2000/svg" viewBox="0 0 50 50">
  <path d="M34 0C25.179688 0 18 7.175781 18 16C18 17.960938 18.382813 19.824219 19.03125 21.5625L0.28125 40.28125L0 40.59375L0 47.40625L0.28125 47.71875L2.28125 49.71875L2.59375 50L9.40625 50L9.71875 49.71875L12.71875 46.71875L13 46.40625L13 44L15.40625 44L15.71875 43.71875L18.71875 40.71875L19 40.40625L19 39L20.40625 39L20.71875 38.71875L22.71875 36.71875L23 36.40625L23 35L24.40625 35L24.71875 34.71875L28.4375 30.96875C30.175781 31.617188 32.039063 32 34 32C42.820313 32 50 24.820313 50 16C50 7.175781 42.820313 0 34 0 Z M 34 2C41.738281 2 48 8.257813 48 16C48 23.738281 41.738281 30 34 30C32.078125 30 30.257813 29.636719 28.59375 28.9375C28.582031 28.925781 28.574219 28.917969 28.5625 28.90625C23.535156 26.78125 20 21.804688 20 16C20 8.257813 26.261719 2 34 2 Z M 34 5C31.183594 5 28.363281 6.074219 26.21875 8.21875L25.5 8.9375L26.21875 9.625L40.375 23.78125L41.0625 24.5L41.78125 23.78125C46.070313 19.496094 46.070313 12.503906 41.78125 8.21875C39.636719 6.074219 36.816406 5 34 5 Z M 34 7C36.300781 7 38.613281 7.863281 40.375 9.625C43.648438 12.898438 43.75 17.996094 40.9375 21.53125L28.46875 9.0625C30.101563 7.765625 32.023438 7 34 7 Z M 19.875 23.53125C21.371094 26.328125 23.671875 28.628906 26.46875 30.125L23.5625 33L21 33L21 35.5625L19.5625 37L17 37L17 39.5625L14.5625 42L11 42L11 45.5625L8.5625 48L3.4375 48L2.4375 47L19 30.4375C19.359375 30.128906 19.457031 29.613281 19.230469 29.199219C19.003906 28.78125 18.515625 28.582031 18.0625 28.71875C17.871094 28.761719 17.699219 28.859375 17.5625 29L2 44.59375L2 41.4375Z" fill="#5B5B5B" />
</svg>