<svg xmlns="http://www.w3.org/2000/svg" viewBox="0 0 50 50">
  <path d="M25 2C15.257933 2 6.9235076 8.0691703 3.5761719 16.636719 A 1.0001 1.0001 0 1 0 5.4375 17.363281C8.4921642 9.5448298 16.088067 4 25 4C36.609534 4 46 13.390466 46 25C46 36.609534 36.609534 46 25 46C16.088067 46 8.4921642 40.455171 5.4375 32.636719 A 1.0001 1.0001 0 1 0 3.5761719 33.363281C6.9235076 41.930829 15.257933 48 25 48C37.690466 48 48 37.690466 48 25C48 12.309534 37.690466 2 25 2 z M 25.990234 15.990234 A 1.0001 1.0001 0 0 0 25.292969 17.707031L31.585938 24L3 24 A 1.0001 1.0001 0 1 0 3 26L31.585938 26L25.292969 32.292969 A 1.0001 1.0001 0 1 0 26.707031 33.707031L34.707031 25.707031 A 1.0001 1.0001 0 0 0 34.707031 24.292969L26.707031 16.292969 A 1.0001 1.0001 0 0 0 25.990234 15.990234 z" fill="#5B5B5B" />
</svg>