<svg xmlns="http://www.w3.org/2000/svg" viewBox="0 0 50 50">
  <path d="M6 2L6 48L27.371094 48C26.520094 47.435 25.754219 46.758 25.074219 46L8 46L8 4L42 4L42 29.074219C42.758 29.754219 43.435 30.520094 44 31.371094L44 2L6 2 z M 13 12L13 14L37 14L37 12L13 12 z M 14 18C13.447 18 13 18.448 13 19L13 36C13 36.552 13.447 37 14 37L17.832031 37 A 1.0001 1.0001 0 0 0 18.158203 37L22.050781 37C22.107781 36.314 22.225578 35.648 22.392578 35L19 35L19 32L23.617188 32C24.033188 31.282 24.522266 30.614 25.072266 30L19 30L19 26L30.832031 26 A 1.0001 1.0001 0 0 0 31.158203 26L37 26L37 19C37 18.448 36.553 18 36 18L14 18 z M 15 20L17 20L17 24L15 24L15 20 z M 19 20L30 20L30 24L19 24L19 20 z M 32 20L35 20L35 24L32 24L32 20 z M 15 26L17 26L17 30L15 30L15 26 z M 34 28C28.488994 28 24 32.488998 24 38C24 43.511002 28.488994 48 34 48C35.242104 48 36.426815 47.762081 37.525391 47.345703C38.070262 48.031647 38.733056 48.618531 39.496094 49.060547 A 1.0001 1.0001 0 0 0 39.498047 49.060547C40.527943 49.656584 41.72745 50 43 50C46.853698 50 50 46.853698 50 43C50 39.419694 47.282294 36.454122 43.806641 36.050781C42.896 31.469094 38.843842 28 34 28 z M 34 30C38.430126 30 42 33.569877 42 38C42 42.430123 38.430126 46 34 46C29.569874 46 26 42.430123 26 38C26 33.569877 29.569874 30 34 30 z M 15 32L17 32L17 35L15 35L15 32 z M 32.070312 33.824219L31.259766 38.367188L32.761719 38.367188C32.926719 38.139188 33.273578 37.708984 34.017578 37.708984C34.283578 37.708984 35.439453 37.811094 35.439453 39.246094C35.439453 39.755094 35.134578 40.830078 34.017578 40.830078C32.978578 40.830078 32.706969 39.972656 32.667969 39.597656L31.001953 39.597656C30.985953 40.584656 31.695734 42.191406 34.052734 42.191406C36.291734 42.191406 37.103516 40.328094 37.103516 39.246094C37.103516 38.678094 36.804359 36.453125 34.568359 36.453125C33.623359 36.453125 33.186937 36.860891 32.960938 37.087891L32.9375 37.0625L33.265625 35.199219L36.658203 35.199219L36.658203 33.824219L32.070312 33.824219 z M 43.994141 38.099609C46.286379 38.557305 48 40.568159 48 43C48 45.772302 45.772302 48 43 48C42.085216 48 41.235686 47.755465 40.5 47.330078L40.498047 47.330078C40.07626 47.085563 39.697684 46.776434 39.365234 46.423828C42.119943 44.662207 43.959363 41.5946 43.994141 38.099609 z" fill="#5B5B5B" />
</svg>